<svg xmlns="http://www.w3.org/2000/svg" width="24" height="24" viewBox="0 0 24 24" fill="#ffffff" class="injected-svg" data-src="/icons/cancel-02-stroke-sharp.svg" xmlns:xlink="http://www.w3.org/1999/xlink" role="img" color="white">
<path d="M20.0002 6.82843L20.5306 7.35876C20.6712 7.21811 20.7502 7.02734 20.7502 6.82843C20.7502 6.62952 20.6712 6.43875 20.5306 6.2981L20.0002 6.82843ZM14.8287 12L14.2984 11.4696L13.768 12L14.2984 12.5303L14.8287 12ZM12.0003 14.8284L12.5306 14.2981L12.0003 13.7677L11.4699 14.2981L12.0003 14.8284ZM6.82871 19.9999L6.29838 20.5303C6.59128 20.8232 7.06615 20.8232 7.35904 20.5303L6.82871 19.9999ZM17.1718 19.9999L16.6415 20.5303C16.9344 20.8232 17.4092 20.8232 17.7021 20.5303L17.1718 19.9999ZM20.0002 17.1715L20.5306 17.7018C20.8235 17.4089 20.8235 16.9341 20.5306 16.6412L20.0002 17.1715ZM17.1718 4L17.7021 3.46967C17.4092 3.17678 16.9344 3.17678 16.6415 3.46967L17.1718 4ZM12.0003 9.17153L11.4699 9.70188L12.0003 10.2322L12.5306 9.70186L12.0003 9.17153ZM9.17183 12L9.70217 12.5303L10.2325 11.9999L9.70215 11.4696L9.17183 12ZM4.00029 17.1715L3.46996 16.6412C3.17706 16.9341 3.17706 17.4089 3.46996 17.7018L4.00029 17.1715ZM4 6.82843L3.46967 6.2981C3.32901 6.43875 3.25 6.62952 3.25 6.82844C3.25 7.02735 3.32903 7.21812 3.46969 7.35877L4 6.82843ZM6.82843 4L7.35874 3.46965C7.06585 3.17678 6.59098 3.17678 6.2981 3.46967L6.82843 4ZM19.4699 6.2981L14.2984 11.4696L15.359 12.5303L20.5306 7.35876L19.4699 6.2981ZM11.4699 14.2981L6.29838 19.4696L7.35904 20.5303L12.5306 15.3587L11.4699 14.2981ZM17.7021 19.4696L12.5306 14.2981L11.4699 15.3587L16.6415 20.5303L17.7021 19.4696ZM14.2984 12.5303L19.4699 17.7018L20.5306 16.6412L15.359 11.4696L14.2984 12.5303ZM19.4699 16.6412L16.6415 19.4696L17.7021 20.5303L20.5306 17.7018L19.4699 16.6412ZM16.6415 3.46967L11.4699 8.6412L12.5306 9.70186L17.7021 4.53033L16.6415 3.46967ZM8.6415 11.4696L3.46996 16.6412L4.53062 17.7018L9.70217 12.5303L8.6415 11.4696ZM3.46969 7.35877L8.64152 12.5303L9.70215 11.4696L4.53031 6.29808L3.46969 7.35877ZM12.5306 8.64119L7.35874 3.46965L6.29811 4.53035L11.4699 9.70188L12.5306 8.64119ZM6.2981 3.46967L3.46967 6.2981L4.53033 7.35876L7.35876 4.53033L6.2981 3.46967ZM20.5306 6.2981L17.7021 3.46967L16.6415 4.53033L19.4699 7.35876L20.5306 6.2981ZM3.46996 17.7018L6.29838 20.5303L7.35904 19.4696L4.53062 16.6412L3.46996 17.7018Z" fill="#ffffff"></path>
</svg>